# xmcd
#
# Track frame offsets:
# 150
# 16997
# 33687
# 49969
# 64966
# 81944
# 102031
# 125002
# 145236
# 163789
# 186648
# 200885
# 214857
# 232558
# 247169
# 267812
# 287776
# 302095
# 321036
# 339542
#
# Disc length: 4775 seconds
#
#
# Revision: 0
# Processed by: cddbd v1.5.2PL0 Copyright (c) Steve Scherf et al.
# Submitted via: FreeRIP 2.951 
#
DISCID=3712a514
DTITLE=Various Artist - Spin List Vol 28 cd2
DYEAR=1900
DGENRE=Hip-Hop
TTITLE0=Show Me What You Got(JayZ)
TTITLE1=Never The Same
TTITLE2=Oh No(SlickRick TKweli Gza)
TTITLE3=Cruise Control
TTITLE4=Live On Stage(Tkweli)
TTITLE5=Ev Rebahdee(WillIam)
TTITLE6=Thiefs Themefreestyle(JMT)
TTITLE7=You Cant Front(Diamond D SAdatX)
TTITLE8=Kindness For Weakness(Tkweli)
TTITLE9=What We Do For Love(SlickRick)
TTITLE10=What Beef(Blackstar)
TTITLE11=Ritual Part One
TTITLE12=Mindstate
TTITLE13=Wack Niggas(TKweli)
TTITLE14=Girls Girls Girls(Slick Rick Biz Markie)
TTITLE15=So Good(Camp Lo)
TTITLE16=Jus Chillin(HOJ)
TTITLE17=Beware Of Us
TTITLE18=My First Love
TTITLE19=Freestyle(PlanetAsia Chino Xl)
EXTD=
EXTT0=
EXTT1=
EXTT2=
EXTT3=
EXTT4=
EXTT5=
EXTT6=
EXTT7=
EXTT8=
EXTT9=
EXTT10=
EXTT11=
EXTT12=
EXTT13=
EXTT14=
EXTT15=
EXTT16=
EXTT17=
EXTT18=
EXTT19=
PLAYORDER=
